<svg width="1024" height="1024" viewBox="0 0 1024 1024" fill="none" xmlns="http://www.w3.org/2000/svg">
  <rect x="80" y="80" width="864" height="864" rx="220" fill="url(#bg)"/>
  <path d="M248 282C248 237.817 283.817 202 328 202H696C740.183 202 776 237.817 776 282V742C776 786.183 740.183 822 696 822H328C283.817 822 248 786.183 248 742V282Z" fill="#F9FFFC"/>
  <path d="M296 314C296 283.072 321.072 258 352 258H682C712.928 258 738 283.072 738 314V724C738 754.928 712.928 780 682 780H352C321.072 780 296 754.928 296 724V314Z" fill="#E8F4EF"/>
  <path d="M512 258V780" stroke="#CADDD3" stroke-width="24" stroke-linecap="round"/>
  <path d="M346 356C398.781 326.612 462.858 329.513 512 364C561.142 329.513 625.219 326.612 678 356V730C625.219 700.612 561.142 703.513 512 738C462.858 703.513 398.781 700.612 346 730V356Z" fill="#FBFDFC"/>
  <path d="M346 356C398.781 326.612 462.858 329.513 512 364V738C462.858 703.513 398.781 700.612 346 730V356Z" fill="#FFF7DF"/>
  <path d="M512 364C561.142 329.513 625.219 326.612 678 356V730C625.219 700.612 561.142 703.513 512 738V364Z" fill="#EAF6FF"/>
  <circle cx="421" cy="456" r="58" fill="#F4C84F"/>
  <path d="M641 398C612.281 414.787 593 445.942 593 481.5C593 534.795 636.205 578 689.5 578C704.414 578 718.538 574.614 731.143 568.562C710.037 605.019 670.6 629.5 625.5 629.5C558.121 629.5 503.5 574.879 503.5 507.5C503.5 454.142 537.754 408.798 585.494 392.216C603.247 386.052 622.731 388.231 641 398Z" fill="#5479CC"/>
  <path d="M404 604C438.123 604 466.969 626.846 476 658C485.031 626.846 513.877 604 548 604" stroke="#2F6F5D" stroke-width="34" stroke-linecap="round"/>
  <path d="M404 604C438.123 604 466.969 626.846 476 658C485.031 626.846 513.877 604 548 604" stroke="#73B28E" stroke-width="16" stroke-linecap="round"/>
  <path d="M366 514H466" stroke="#E7B946" stroke-width="24" stroke-linecap="round"/>
  <path d="M566 662H666" stroke="#86BDEB" stroke-width="24" stroke-linecap="round"/>
  <path d="M366 664H444" stroke="#E98264" stroke-width="24" stroke-linecap="round"/>
  <path d="M944 512C944 750.587 750.587 944 512 944C273.413 944 80 750.587 80 512C80 273.413 273.413 80 512 80C750.587 80 944 273.413 944 512Z" stroke="rgba(255,255,255,0.5)" stroke-width="18"/>
  <defs>
    <linearGradient id="bg" x1="202" y1="166" x2="822" y2="870" gradientUnits="userSpaceOnUse">
      <stop stop-color="#2F6F5D"/>
      <stop offset="0.48" stop-color="#3C8271"/>
      <stop offset="1" stop-color="#263F52"/>
    </linearGradient>
  </defs>
</svg>
